<svg width="94" height="22" viewBox="0 0 94 22" fill="none" xmlns="http://www.w3.org/2000/svg">
<path d="M4.82465 16.4877H5.80065V15.0637C8.26465 14.8717 9.19265 13.3997 9.19265 11.9437C9.19265 9.86373 7.44865 9.23973 5.80065 8.77573V5.30373C6.69665 5.43173 7.51265 5.83173 8.15265 6.51973L8.95265 5.54373C8.16865 4.72773 7.12865 4.21572 5.80065 4.08773V2.59973H4.82465V4.07172C2.88865 4.18373 1.49665 5.35173 1.49665 7.01573C1.49665 8.98373 3.19265 9.52773 4.82465 9.97573V13.8797C3.54465 13.7357 2.56865 13.0797 1.94465 12.3757L1.16065 13.3837C1.96065 14.2957 3.19265 14.9677 4.82465 15.0637V16.4877ZM7.81665 12.0557C7.81665 12.8077 7.32065 13.7197 5.80065 13.8797V10.2477C6.92065 10.5837 7.81665 11.0157 7.81665 12.0557ZM2.87265 6.93573C2.87265 5.99172 3.67265 5.33573 4.82465 5.25572V8.51973C3.73665 8.19973 2.87265 7.83173 2.87265 6.93573ZM16.885 14.8877V12.1837H18.389V11.0157H16.885V4.21572H15.061L10.485 11.0797V12.1837H15.557V14.8877H16.885ZM15.557 11.0157H11.813L15.557 5.44773V11.0157ZM23.1989 15.0637C26.1909 15.0637 27.5349 12.4397 27.5349 9.55973C27.5349 6.64773 26.3989 4.03973 23.4069 4.03973C21.0869 4.03973 19.6789 5.68773 19.6789 7.52773C19.6789 9.79973 21.2629 10.9357 23.1829 10.9357C24.5429 10.9357 25.7269 10.0077 26.1909 9.27173C26.2069 9.41573 26.2069 9.55973 26.2069 9.70373C26.2069 11.7197 25.3589 13.8797 23.1989 13.8797C22.0949 13.8797 21.4549 13.4317 20.9109 12.7917L20.2389 13.7837C20.9109 14.5517 21.8389 15.0637 23.1989 15.0637ZM23.4869 9.78373C22.1109 9.78373 21.0229 9.04773 21.0229 7.47973C21.0229 6.47173 21.8389 5.22373 23.4709 5.22373C25.3269 5.22373 26.0309 6.87173 26.1429 8.19973C25.5829 9.14373 24.5429 9.78373 23.4869 9.78373ZM32.652 15.0637C35.644 15.0637 36.988 12.4397 36.988 9.55973C36.988 6.64773 35.852 4.03973 32.86 4.03973C30.54 4.03973 29.132 5.68773 29.132 7.52773C29.132 9.79973 30.716 10.9357 32.636 10.9357C33.996 10.9357 35.18 10.0077 35.644 9.27173C35.66 9.41573 35.66 9.55973 35.66 9.70373C35.66 11.7197 34.812 13.8797 32.652 13.8797C31.548 13.8797 30.908 13.4317 30.364 12.7917L29.692 13.7837C30.364 14.5517 31.292 15.0637 32.652 15.0637ZM32.94 9.78373C31.564 9.78373 30.476 9.04773 30.476 7.47973C30.476 6.47173 31.292 5.22373 32.924 5.22373C34.78 5.22373 35.484 6.87173 35.596 8.19973C35.036 9.14373 33.996 9.78373 32.94 9.78373Z" fill="#FF4858"/>
<path d="M56.6268 16.4877H57.6028V15.0637C60.0668 14.8717 60.9948 13.3997 60.9948 11.9437C60.9948 9.86371 59.2508 9.23971 57.6028 8.77571V5.30371C58.4988 5.43171 59.3148 5.83171 59.9548 6.51971L60.7548 5.54371C59.9708 4.72771 58.9308 4.21571 57.6028 4.08771V2.59971H56.6268V4.07171C54.6908 4.18371 53.2988 5.35171 53.2988 7.01571C53.2988 8.98371 54.9948 9.52771 56.6268 9.97571V13.8797C55.3468 13.7357 54.3708 13.0797 53.7468 12.3757L52.9628 13.3837C53.7628 14.2957 54.9948 14.9677 56.6268 15.0637V16.4877ZM59.6188 12.0557C59.6188 12.8077 59.1228 13.7197 57.6028 13.8797V10.2477C58.7228 10.5837 59.6188 11.0157 59.6188 12.0557ZM54.6748 6.93571C54.6748 5.99171 55.4748 5.33571 56.6268 5.25571V8.51971C55.5388 8.19971 54.6748 7.83171 54.6748 6.93571ZM66.5911 15.0797C68.7351 15.0797 70.3831 13.7357 70.3831 11.5597C70.3831 9.36771 68.7671 8.15171 66.9911 8.15171C65.9191 8.15171 65.0071 8.59971 64.4951 9.11171V5.39971H69.6951V4.21571H63.1671V9.97571L64.1431 10.3117C64.8631 9.60771 65.6631 9.30371 66.6071 9.30371C68.0471 9.30371 69.0551 10.1997 69.0551 11.6077C69.0551 12.9037 68.0471 13.8957 66.5911 13.8957C65.2791 13.8957 64.3511 13.3837 63.6471 12.4877L62.8311 13.3677C63.6311 14.4237 64.7831 15.0797 66.5911 15.0797ZM75.5166 15.0637C78.5086 15.0637 79.8526 12.4397 79.8526 9.55971C79.8526 6.64771 78.7166 4.03971 75.7246 4.03971C73.4046 4.03971 71.9966 5.68771 71.9966 7.52771C71.9966 9.79971 73.5806 10.9357 75.5006 10.9357C76.8606 10.9357 78.0446 10.0077 78.5086 9.27171C78.5246 9.41571 78.5246 9.55971 78.5246 9.70371C78.5246 11.7197 77.6766 13.8797 75.5166 13.8797C74.4126 13.8797 73.7726 13.4317 73.2286 12.7917L72.5566 13.7837C73.2286 14.5517 74.1566 15.0637 75.5166 15.0637ZM75.8046 9.78371C74.4286 9.78371 73.3406 9.04771 73.3406 7.47971C73.3406 6.47171 74.1566 5.22371 75.7886 5.22371C77.6446 5.22371 78.3486 6.87171 78.4606 8.19971C77.9006 9.14371 76.8606 9.78371 75.8046 9.78371ZM84.9698 15.0637C87.9618 15.0637 89.3058 12.4397 89.3058 9.55971C89.3058 6.64771 88.1698 4.03971 85.1778 4.03971C82.8578 4.03971 81.4498 5.68771 81.4498 7.52771C81.4498 9.79971 83.0338 10.9357 84.9538 10.9357C86.3138 10.9357 87.4978 10.0077 87.9618 9.27171C87.9778 9.41571 87.9778 9.55971 87.9778 9.70371C87.9778 11.7197 87.1298 13.8797 84.9698 13.8797C83.8658 13.8797 83.2258 13.4317 82.6818 12.7917L82.0098 13.7837C82.6818 14.5517 83.6098 15.0637 84.9698 15.0637ZM85.2578 9.78371C83.8818 9.78371 82.7938 9.04771 82.7938 7.47971C82.7938 6.47171 83.6098 5.22371 85.2418 5.22371C87.0978 5.22371 87.8018 6.87171 87.9138 8.19971C87.3538 9.14371 86.3138 9.78371 85.2578 9.78371Z" fill="#C1C8CE"/>
<path d="M52.312 13.116H93.7589" stroke="#5D656B"/>
</svg>
