<svg width="106" height="31" viewBox="0 0 106 31" fill="none" xmlns="http://www.w3.org/2000/svg">
<path d="M6.19297 24.3286H7.49297V22.6886C10.193 22.4486 11.673 20.5686 11.673 18.6286C11.673 15.8086 9.49297 15.2686 7.49297 14.7886V10.4686C8.45297 10.7086 9.01297 11.4486 9.09297 12.2486H11.533C11.353 9.98862 9.79297 8.72862 7.49297 8.52862V6.90862H6.19297V8.54862C3.71297 8.76862 1.99297 10.3086 1.99297 12.5486C1.99297 15.3686 4.19297 15.9286 6.19297 16.4286V20.8286C5.07297 20.6286 4.51297 19.8886 4.43297 18.8886H1.99297C1.99297 21.1486 3.75297 22.4886 6.19297 22.7086V24.3286ZM9.37297 18.7486C9.37297 19.7886 8.69297 20.6286 7.49297 20.8286V16.7686C8.57297 17.1086 9.37297 17.6086 9.37297 18.7486ZM4.31297 12.4286C4.31297 11.2086 5.09297 10.5486 6.19297 10.4086V14.4486C5.11297 14.1086 4.31297 13.5886 4.31297 12.4286ZM21.9608 22.5886H24.2008V19.5486H26.0608V17.5686H24.2008V8.18862H21.4408L14.7208 17.8286V19.5486H21.9608V22.5886ZM17.3408 17.5686L22.0608 10.5086V17.5686H17.3408ZM28.69 18.6286C28.87 20.7086 30.27 22.5686 33.29 22.5686C37.11 22.5686 38.15 19.9486 38.15 15.0286C38.15 10.2486 36.89 7.66862 33.13 7.66862C30.07 7.66862 28.29 9.58862 28.29 12.4886C28.29 15.5686 30.37 17.1486 32.93 17.1486C34.25 17.1486 35.51 16.6486 36.17 15.7286C36.17 19.4486 35.25 20.6686 33.43 20.6686C31.91 20.6686 31.05 19.9286 30.79 18.6286H28.69ZM33.33 15.2286C31.31 15.2286 30.47 13.9286 30.47 12.4286C30.47 10.7486 31.49 9.56862 33.19 9.56862C34.85 9.56862 35.91 10.6286 35.91 12.4886C35.91 14.1286 34.95 15.2286 33.33 15.2286ZM41.3853 18.6286C41.5653 20.7086 42.9653 22.5686 45.9853 22.5686C49.8053 22.5686 50.8453 19.9486 50.8453 15.0286C50.8453 10.2486 49.5853 7.66862 45.8253 7.66862C42.7653 7.66862 40.9853 9.58862 40.9853 12.4886C40.9853 15.5686 43.0653 17.1486 45.6253 17.1486C46.9453 17.1486 48.2053 16.6486 48.8653 15.7286C48.8653 19.4486 47.9453 20.6686 46.1253 20.6686C44.6053 20.6686 43.7453 19.9286 43.4853 18.6286H41.3853ZM46.0253 15.2286C44.0053 15.2286 43.1653 13.9286 43.1653 12.4286C43.1653 10.7486 44.1853 9.56862 45.8853 9.56862C47.5453 9.56862 48.6053 10.6286 48.6053 12.4886C48.6053 14.1286 47.6453 15.2286 46.0253 15.2286Z" fill="#FF4858"/>
<path d="M62.4849 23.5886H63.7049V21.8086C66.7849 21.5686 67.9449 19.7286 67.9449 17.9086C67.9449 15.3086 65.7649 14.5286 63.7049 13.9486V9.60862C64.8249 9.76862 65.8449 10.2686 66.6449 11.1286L67.6449 9.90862C66.6649 8.88862 65.3649 8.24862 63.7049 8.08862V6.22862H62.4849V8.06862C60.0649 8.20862 58.3249 9.66862 58.3249 11.7486C58.3249 14.2086 60.4449 14.8886 62.4849 15.4486V20.3286C60.8849 20.1486 59.6649 19.3286 58.8849 18.4486L57.9049 19.7086C58.9049 20.8486 60.4449 21.6886 62.4849 21.8086V23.5886ZM66.2249 18.0486C66.2249 18.9886 65.6049 20.1286 63.7049 20.3286V15.7886C65.1049 16.2086 66.2249 16.7486 66.2249 18.0486ZM60.0449 11.6486C60.0449 10.4686 61.0449 9.64862 62.4849 9.54862V13.6286C61.1249 13.2286 60.0449 12.7686 60.0449 11.6486ZM74.9404 21.8286C77.6204 21.8286 79.6804 20.1486 79.6804 17.4286C79.6804 14.6886 77.6604 13.1686 75.4404 13.1686C74.1004 13.1686 72.9604 13.7286 72.3204 14.3686V9.72862H78.8204V8.24862H70.6604V15.4486L71.8804 15.8686C72.7804 14.9886 73.7804 14.6086 74.9604 14.6086C76.7604 14.6086 78.0204 15.7286 78.0204 17.4886C78.0204 19.1086 76.7604 20.3486 74.9404 20.3486C73.3004 20.3486 72.1404 19.7086 71.2604 18.5886L70.2404 19.6886C71.2404 21.0086 72.6804 21.8286 74.9404 21.8286ZM86.0973 21.8086C89.8373 21.8086 91.5173 18.5286 91.5173 14.9286C91.5173 11.2886 90.0973 8.02862 86.3573 8.02862C83.4573 8.02862 81.6973 10.0886 81.6973 12.3886C81.6973 15.2286 83.6773 16.6486 86.0773 16.6486C87.7773 16.6486 89.2573 15.4886 89.8373 14.5686C89.8573 14.7486 89.8573 14.9286 89.8573 15.1086C89.8573 17.6286 88.7973 20.3286 86.0973 20.3286C84.7173 20.3286 83.9173 19.7686 83.2373 18.9686L82.3973 20.2086C83.2373 21.1686 84.3973 21.8086 86.0973 21.8086ZM86.4573 15.2086C84.7373 15.2086 83.3773 14.2886 83.3773 12.3286C83.3773 11.0686 84.3973 9.50862 86.4373 9.50862C88.7573 9.50862 89.6373 11.5686 89.7773 13.2286C89.0773 14.4086 87.7773 15.2086 86.4573 15.2086ZM97.9137 21.8086C101.654 21.8086 103.334 18.5286 103.334 14.9286C103.334 11.2886 101.914 8.02862 98.1737 8.02862C95.2737 8.02862 93.5137 10.0886 93.5137 12.3886C93.5137 15.2286 95.4937 16.6486 97.8937 16.6486C99.5937 16.6486 101.074 15.4886 101.654 14.5686C101.674 14.7486 101.674 14.9286 101.674 15.1086C101.674 17.6286 100.614 20.3286 97.9137 20.3286C96.5337 20.3286 95.7337 19.7686 95.0537 18.9686L94.2137 20.2086C95.0537 21.1686 96.2137 21.8086 97.9137 21.8086ZM98.2737 15.2086C96.5537 15.2086 95.1937 14.2886 95.1937 12.3286C95.1937 11.0686 96.2137 9.50862 98.2537 9.50862C100.574 9.50862 101.454 11.5686 101.594 13.2286C100.894 14.4086 99.5937 15.2086 98.2737 15.2086Z" fill="#C1C8CE"/>
<path d="M57.9751 18.2646H104.304" stroke="#5D656B"/>
</svg>
